# Blender v2.82 (sub 7) OBJ File: 'einkaufswagen.blend'
# www.blender.org
mtllib einkaufswagen_collider.mtl
o collider_bruce_Cube.002
v -1.028739 0.710566 -0.563633
v -0.978209 2.049053 -0.947876
v 0.569362 0.710566 -0.563633
v 0.518832 2.049053 -0.947876
v -0.810751 0.895286 1.333032
v -0.810751 1.755180 1.347264
v 0.351374 0.895286 1.333032
v 0.351374 1.755180 1.347264
v 0.518832 1.755180 1.347264
v -1.009609 0.734321 -0.546166
v -0.959403 2.055792 -0.916389
v 0.550232 0.734321 -0.546167
v 0.500026 2.055792 -0.916389
v -0.794438 0.915164 1.306308
v -0.790235 1.754325 1.316957
v 0.335061 0.915164 1.306308
v 0.330858 1.754325 1.316957
v 0.501299 1.740488 1.317883
vt 0.767618 0.447939
vt 0.463533 0.462066
vt 0.463533 0.880603
vt 0.767618 0.894730
vt 0.083329 0.449601
vt 0.001629 0.752522
vt 0.464013 0.692524
vt 0.464013 0.497147
vt 0.000383 0.946980
vt 0.000383 0.751625
vt 0.325285 0.751625
vt 0.325285 0.946980
vt 0.462767 0.495485
vt 0.462767 0.690861
vt 0.000383 0.750860
vt 0.082083 0.447939
vt 0.381723 0.000383
vt 0.000383 0.061327
vt 0.000383 0.386229
vt 0.381723 0.447174
vt 0.767618 0.447939
vt 0.767618 0.894730
vt 0.463533 0.880603
vt 0.463533 0.462066
vt 0.083329 0.449601
vt 0.464013 0.497147
vt 0.464013 0.692524
vt 0.001629 0.752522
vt 0.000383 0.946980
vt 0.325285 0.946980
vt 0.325285 0.751625
vt 0.000383 0.751625
vt 0.462767 0.495485
vt 0.082083 0.447939
vt 0.000383 0.750860
vt 0.462767 0.690861
vt 0.381723 0.000383
vt 0.381723 0.447174
vt 0.000383 0.386229
vt 0.000383 0.061327
vn 0.0000 -0.2759 -0.9612
vn 0.9950 0.0384 0.0925
vn 0.0000 -0.0165 0.9999
vn -0.9950 0.0384 0.0925
vn -0.0000 -0.9953 0.0969
vn 0.0000 0.2698 0.9629
vn -0.9947 -0.0408 -0.0948
vn 0.0000 0.0127 -0.9999
vn 0.9947 -0.0408 -0.0948
vn -0.0000 0.9953 -0.0972
vn 0.0000 0.9779 -0.2093
vn 0.1506 0.9786 0.1399
vn 0.0000 0.9996 -0.0282
vn -0.1506 0.9786 0.1399
usemtl None
s off
f 1/1/1 2/2/1 4/3/1 3/4/1
f 3/5/2 4/6/2 8/7/2 7/8/2
f 7/9/3 8/10/3 6/11/3 5/12/3
f 5/13/4 6/14/4 2/15/4 1/16/4
f 3/17/5 7/18/5 5/19/5 1/20/5
f 10/21/6 12/22/6 13/23/6 11/24/6
f 12/25/7 16/26/7 17/27/7 13/28/7
f 16/29/8 14/30/8 15/31/8 17/32/8
f 14/33/9 10/34/9 11/35/9 15/36/9
f 12/37/10 10/38/10 14/39/10 16/40/10
f 4/3/11 2/2/11 11/24/11 13/23/11
f 8/7/12 4/6/12 13/28/12 17/27/12
f 6/11/13 8/10/13 17/32/13 15/31/13
f 2/15/14 6/14/14 15/36/14 11/35/14
